<mxfile host="app.diagrams.net" agent="Mozilla/5.0 (Macintosh; Intel Mac OS X 10_15_7) AppleWebKit/537.36 (KHTML, like Gecko) Chrome/137.0.0.0 Safari/537.36" version="28.0.1">
  <diagram name="第 1 页" id="Xqxx_BUMtfWwsDz8GLsf">
    <mxGraphModel dx="2565" dy="1390" grid="1" gridSize="10" guides="1" tooltips="1" connect="1" arrows="1" fold="1" page="1" pageScale="1" pageWidth="2000" pageHeight="1000" math="0" shadow="0">
      <root>
        <mxCell id="0" />
        <mxCell id="1" parent="0" />
        <mxCell id="ybSoX0F6BqA2yfXRWK5T-16" value="" style="rounded=0;whiteSpace=wrap;html=1;" vertex="1" parent="1">
          <mxGeometry x="80" y="120" width="190" height="320" as="geometry" />
        </mxCell>
        <mxCell id="ybSoX0F6BqA2yfXRWK5T-24" style="edgeStyle=orthogonalEdgeStyle;rounded=0;orthogonalLoop=1;jettySize=auto;html=1;exitX=1;exitY=0.5;exitDx=0;exitDy=0;exitPerimeter=0;entryX=0;entryY=0.5;entryDx=0;entryDy=0;" edge="1" parent="1" source="ybSoX0F6BqA2yfXRWK5T-1" target="ybSoX0F6BqA2yfXRWK5T-20">
          <mxGeometry relative="1" as="geometry" />
        </mxCell>
        <mxCell id="ybSoX0F6BqA2yfXRWK5T-25" value="文件上传到 hive" style="edgeLabel;html=1;align=center;verticalAlign=middle;resizable=0;points=[];" vertex="1" connectable="0" parent="ybSoX0F6BqA2yfXRWK5T-24">
          <mxGeometry x="0.1968" y="-2" relative="1" as="geometry">
            <mxPoint x="6" y="-2" as="offset" />
          </mxGeometry>
        </mxCell>
        <mxCell id="ybSoX0F6BqA2yfXRWK5T-1" value="" style="verticalLabelPosition=bottom;html=1;verticalAlign=top;align=center;strokeColor=none;fillColor=#00BEF2;shape=mxgraph.azure.cloud_services_configuration_file;pointerEvents=1;" vertex="1" parent="1">
          <mxGeometry x="146.62" y="180" width="56.75" height="60" as="geometry" />
        </mxCell>
        <mxCell id="ybSoX0F6BqA2yfXRWK5T-40" style="edgeStyle=orthogonalEdgeStyle;rounded=0;orthogonalLoop=1;jettySize=auto;html=1;entryX=0;entryY=0.5;entryDx=0;entryDy=0;" edge="1" parent="1" source="ybSoX0F6BqA2yfXRWK5T-15" target="ybSoX0F6BqA2yfXRWK5T-26">
          <mxGeometry relative="1" as="geometry">
            <Array as="points">
              <mxPoint x="512.62" y="350" />
              <mxPoint x="512.62" y="285" />
            </Array>
          </mxGeometry>
        </mxCell>
        <mxCell id="ybSoX0F6BqA2yfXRWK5T-15" value="" style="shape=datastore;whiteSpace=wrap;html=1;" vertex="1" parent="1">
          <mxGeometry x="142" y="320" width="66" height="60" as="geometry" />
        </mxCell>
        <mxCell id="ybSoX0F6BqA2yfXRWK5T-17" value="样本来源" style="text;html=1;align=center;verticalAlign=middle;resizable=0;points=[];autosize=1;strokeColor=none;fillColor=none;" vertex="1" parent="1">
          <mxGeometry x="92.62" y="130" width="70" height="30" as="geometry" />
        </mxCell>
        <mxCell id="ybSoX0F6BqA2yfXRWK5T-18" value="文件" style="text;html=1;align=center;verticalAlign=middle;resizable=0;points=[];autosize=1;strokeColor=none;fillColor=none;" vertex="1" parent="1">
          <mxGeometry x="150" y="240" width="50" height="30" as="geometry" />
        </mxCell>
        <mxCell id="ybSoX0F6BqA2yfXRWK5T-19" value="hive 表" style="text;html=1;align=center;verticalAlign=middle;resizable=0;points=[];autosize=1;strokeColor=none;fillColor=none;" vertex="1" parent="1">
          <mxGeometry x="148" y="290" width="60" height="30" as="geometry" />
        </mxCell>
        <mxCell id="ybSoX0F6BqA2yfXRWK5T-20" value="" style="shape=datastore;whiteSpace=wrap;html=1;" vertex="1" parent="1">
          <mxGeometry x="392.62" y="180" width="66" height="60" as="geometry" />
        </mxCell>
        <mxCell id="ybSoX0F6BqA2yfXRWK5T-46" style="edgeStyle=orthogonalEdgeStyle;rounded=0;orthogonalLoop=1;jettySize=auto;html=1;entryX=0;entryY=0.5;entryDx=0;entryDy=0;" edge="1" parent="1" source="ybSoX0F6BqA2yfXRWK5T-26" target="ybSoX0F6BqA2yfXRWK5T-38">
          <mxGeometry relative="1" as="geometry">
            <Array as="points">
              <mxPoint x="952.62" y="285" />
              <mxPoint x="952.62" y="160" />
            </Array>
          </mxGeometry>
        </mxCell>
        <mxCell id="ybSoX0F6BqA2yfXRWK5T-47" style="edgeStyle=orthogonalEdgeStyle;rounded=0;orthogonalLoop=1;jettySize=auto;html=1;entryX=0;entryY=0.5;entryDx=0;entryDy=0;" edge="1" parent="1" source="ybSoX0F6BqA2yfXRWK5T-26" target="ybSoX0F6BqA2yfXRWK5T-43">
          <mxGeometry relative="1" as="geometry">
            <Array as="points">
              <mxPoint x="952.62" y="285" />
              <mxPoint x="952.62" y="430" />
            </Array>
          </mxGeometry>
        </mxCell>
        <mxCell id="ybSoX0F6BqA2yfXRWK5T-48" value="left join" style="edgeLabel;html=1;align=center;verticalAlign=middle;resizable=0;points=[];" vertex="1" connectable="0" parent="ybSoX0F6BqA2yfXRWK5T-47">
          <mxGeometry x="-0.6582" relative="1" as="geometry">
            <mxPoint as="offset" />
          </mxGeometry>
        </mxCell>
        <mxCell id="ybSoX0F6BqA2yfXRWK5T-69" style="edgeStyle=orthogonalEdgeStyle;rounded=0;orthogonalLoop=1;jettySize=auto;html=1;entryX=0;entryY=0.5;entryDx=0;entryDy=0;" edge="1" parent="1" source="ybSoX0F6BqA2yfXRWK5T-26" target="ybSoX0F6BqA2yfXRWK5T-63">
          <mxGeometry relative="1" as="geometry">
            <Array as="points">
              <mxPoint x="730.62" y="560" />
              <mxPoint x="1392.62" y="560" />
              <mxPoint x="1392.62" y="285" />
            </Array>
          </mxGeometry>
        </mxCell>
        <mxCell id="ybSoX0F6BqA2yfXRWK5T-26" value="" style="shape=datastore;whiteSpace=wrap;html=1;fillColor=#cdeb8b;strokeColor=#36393d;" vertex="1" parent="1">
          <mxGeometry x="677.62" y="250" width="105" height="70" as="geometry" />
        </mxCell>
        <mxCell id="ybSoX0F6BqA2yfXRWK5T-88" style="edgeStyle=orthogonalEdgeStyle;rounded=0;orthogonalLoop=1;jettySize=auto;html=1;entryX=0;entryY=0.5;entryDx=0;entryDy=0;" edge="1" parent="1" source="ybSoX0F6BqA2yfXRWK5T-27" target="ybSoX0F6BqA2yfXRWK5T-71">
          <mxGeometry relative="1" as="geometry">
            <Array as="points">
              <mxPoint x="730.62" y="700" />
              <mxPoint x="1752.62" y="700" />
              <mxPoint x="1752.62" y="360" />
            </Array>
          </mxGeometry>
        </mxCell>
        <mxCell id="ybSoX0F6BqA2yfXRWK5T-27" value="去重后的样本表" style="text;html=1;align=center;verticalAlign=middle;resizable=0;points=[];autosize=1;strokeColor=none;fillColor=none;" vertex="1" parent="1">
          <mxGeometry x="675.12" y="280" width="110" height="30" as="geometry" />
        </mxCell>
        <mxCell id="ybSoX0F6BqA2yfXRWK5T-41" style="edgeStyle=orthogonalEdgeStyle;rounded=0;orthogonalLoop=1;jettySize=auto;html=1;entryX=0;entryY=0.5;entryDx=0;entryDy=0;" edge="1" parent="1" source="ybSoX0F6BqA2yfXRWK5T-28" target="ybSoX0F6BqA2yfXRWK5T-26">
          <mxGeometry relative="1" as="geometry">
            <Array as="points">
              <mxPoint x="512.62" y="215" />
              <mxPoint x="512.62" y="285" />
            </Array>
          </mxGeometry>
        </mxCell>
        <mxCell id="ybSoX0F6BqA2yfXRWK5T-28" value="原始样本表" style="text;html=1;align=center;verticalAlign=middle;resizable=0;points=[];autosize=1;strokeColor=none;fillColor=none;" vertex="1" parent="1">
          <mxGeometry x="385.62" y="200" width="80" height="30" as="geometry" />
        </mxCell>
        <mxCell id="ybSoX0F6BqA2yfXRWK5T-29" value="原始样本表" style="text;html=1;align=center;verticalAlign=middle;resizable=0;points=[];autosize=1;strokeColor=none;fillColor=none;" vertex="1" parent="1">
          <mxGeometry x="134.99" y="340" width="80" height="30" as="geometry" />
        </mxCell>
        <mxCell id="ybSoX0F6BqA2yfXRWK5T-34" value="按主键和日期去重" style="text;html=1;align=center;verticalAlign=middle;resizable=0;points=[];autosize=1;strokeColor=none;fillColor=none;" vertex="1" parent="1">
          <mxGeometry x="532.62" y="288" width="120" height="30" as="geometry" />
        </mxCell>
        <mxCell id="ybSoX0F6BqA2yfXRWK5T-36" value="user_guid, md5_phone, date_day" style="text;html=1;align=center;verticalAlign=middle;whiteSpace=wrap;rounded=0;" vertex="1" parent="1">
          <mxGeometry x="620.12" y="210" width="220" height="30" as="geometry" />
        </mxCell>
        <mxCell id="ybSoX0F6BqA2yfXRWK5T-37" value="&lt;span style=&quot;color: rgb(0, 0, 0); font-family: Helvetica; font-size: 12px; font-style: normal; font-variant-ligatures: normal; font-variant-caps: normal; font-weight: 400; letter-spacing: normal; orphans: 2; text-align: center; text-indent: 0px; text-transform: none; widows: 2; word-spacing: 0px; -webkit-text-stroke-width: 0px; white-space: normal; background-color: rgb(236, 236, 236); text-decoration-thickness: initial; text-decoration-style: initial; text-decoration-color: initial; display: inline !important; float: none;&quot;&gt;md5_phone, date_day&lt;/span&gt;" style="text;whiteSpace=wrap;html=1;" vertex="1" parent="1">
          <mxGeometry x="362.62" y="145" width="150" height="40" as="geometry" />
        </mxCell>
        <mxCell id="ybSoX0F6BqA2yfXRWK5T-38" value="" style="shape=datastore;whiteSpace=wrap;html=1;" vertex="1" parent="1">
          <mxGeometry x="1029.62" y="130" width="66" height="60" as="geometry" />
        </mxCell>
        <mxCell id="ybSoX0F6BqA2yfXRWK5T-62" style="edgeStyle=orthogonalEdgeStyle;rounded=0;orthogonalLoop=1;jettySize=auto;html=1;entryX=0;entryY=0.5;entryDx=0;entryDy=0;" edge="1" parent="1" source="ybSoX0F6BqA2yfXRWK5T-39" target="ybSoX0F6BqA2yfXRWK5T-57">
          <mxGeometry relative="1" as="geometry" />
        </mxCell>
        <mxCell id="ybSoX0F6BqA2yfXRWK5T-39" value="特征表" style="text;html=1;align=center;verticalAlign=middle;resizable=0;points=[];autosize=1;strokeColor=none;fillColor=none;" vertex="1" parent="1">
          <mxGeometry x="1032.62" y="150" width="60" height="30" as="geometry" />
        </mxCell>
        <mxCell id="ybSoX0F6BqA2yfXRWK5T-42" value="user_guid, feat, pt" style="text;html=1;align=center;verticalAlign=middle;resizable=0;points=[];autosize=1;strokeColor=none;fillColor=none;" vertex="1" parent="1">
          <mxGeometry x="1002.62" y="100" width="120" height="30" as="geometry" />
        </mxCell>
        <mxCell id="ybSoX0F6BqA2yfXRWK5T-43" value="" style="shape=datastore;whiteSpace=wrap;html=1;" vertex="1" parent="1">
          <mxGeometry x="1029.62" y="400" width="66" height="60" as="geometry" />
        </mxCell>
        <mxCell id="ybSoX0F6BqA2yfXRWK5T-56" style="edgeStyle=orthogonalEdgeStyle;rounded=0;orthogonalLoop=1;jettySize=auto;html=1;" edge="1" parent="1" source="ybSoX0F6BqA2yfXRWK5T-44" target="ybSoX0F6BqA2yfXRWK5T-52">
          <mxGeometry relative="1" as="geometry" />
        </mxCell>
        <mxCell id="ybSoX0F6BqA2yfXRWK5T-44" value="特征表" style="text;html=1;align=center;verticalAlign=middle;resizable=0;points=[];autosize=1;strokeColor=none;fillColor=none;" vertex="1" parent="1">
          <mxGeometry x="1032.62" y="420" width="60" height="30" as="geometry" />
        </mxCell>
        <mxCell id="ybSoX0F6BqA2yfXRWK5T-45" value="user_guid, feat, pt" style="text;html=1;align=center;verticalAlign=middle;resizable=0;points=[];autosize=1;strokeColor=none;fillColor=none;" vertex="1" parent="1">
          <mxGeometry x="1002.62" y="370" width="120" height="30" as="geometry" />
        </mxCell>
        <mxCell id="ybSoX0F6BqA2yfXRWK5T-49" value="（按 user_guid 链接）" style="text;html=1;align=center;verticalAlign=middle;resizable=0;points=[];autosize=1;strokeColor=none;fillColor=none;" vertex="1" parent="1">
          <mxGeometry x="792.62" y="290" width="140" height="30" as="geometry" />
        </mxCell>
        <mxCell id="ybSoX0F6BqA2yfXRWK5T-67" style="edgeStyle=orthogonalEdgeStyle;rounded=0;orthogonalLoop=1;jettySize=auto;html=1;entryX=0;entryY=0.5;entryDx=0;entryDy=0;" edge="1" parent="1" source="ybSoX0F6BqA2yfXRWK5T-51" target="ybSoX0F6BqA2yfXRWK5T-63">
          <mxGeometry relative="1" as="geometry">
            <Array as="points">
              <mxPoint x="1392.62" y="430" />
              <mxPoint x="1392.62" y="285" />
            </Array>
          </mxGeometry>
        </mxCell>
        <mxCell id="ybSoX0F6BqA2yfXRWK5T-51" value="" style="shape=datastore;whiteSpace=wrap;html=1;" vertex="1" parent="1">
          <mxGeometry x="1189.62" y="400" width="66" height="60" as="geometry" />
        </mxCell>
        <mxCell id="ybSoX0F6BqA2yfXRWK5T-52" value="结果表" style="text;html=1;align=center;verticalAlign=middle;resizable=0;points=[];autosize=1;strokeColor=none;fillColor=none;" vertex="1" parent="1">
          <mxGeometry x="1192.62" y="420" width="60" height="30" as="geometry" />
        </mxCell>
        <mxCell id="ybSoX0F6BqA2yfXRWK5T-55" value="&lt;span style=&quot;forced-color-adjust: none; color: rgb(0, 0, 0); font-family: Helvetica; font-size: 12px; font-style: normal; font-variant-ligatures: normal; font-variant-caps: normal; font-weight: 400; letter-spacing: normal; orphans: 2; text-align: left; text-indent: 0px; text-transform: none; widows: 2; word-spacing: 0px; -webkit-text-stroke-width: 0px; white-space: normal; background-color: rgb(236, 236, 236); text-decoration-thickness: initial; text-decoration-style: initial; text-decoration-color: initial;&quot;&gt;md5_phone, date_day,&amp;nbsp;&lt;/span&gt;&lt;span style=&quot;color: rgb(0, 0, 0); font-family: Helvetica; font-size: 12px; font-style: normal; font-variant-ligatures: normal; font-variant-caps: normal; font-weight: 400; letter-spacing: normal; orphans: 2; text-align: left; text-indent: 0px; text-transform: none; widows: 2; word-spacing: 0px; -webkit-text-stroke-width: 0px; white-space: nowrap; background-color: rgb(236, 236, 236); text-decoration-thickness: initial; text-decoration-style: initial; text-decoration-color: initial; display: inline !important; float: none;&quot;&gt;user_guid, feat, pt&lt;/span&gt;" style="text;whiteSpace=wrap;html=1;" vertex="1" parent="1">
          <mxGeometry x="1097.62" y="470" width="250" height="40" as="geometry" />
        </mxCell>
        <mxCell id="ybSoX0F6BqA2yfXRWK5T-65" style="edgeStyle=orthogonalEdgeStyle;rounded=0;orthogonalLoop=1;jettySize=auto;html=1;entryX=0;entryY=0.5;entryDx=0;entryDy=0;" edge="1" parent="1" source="ybSoX0F6BqA2yfXRWK5T-57" target="ybSoX0F6BqA2yfXRWK5T-63">
          <mxGeometry relative="1" as="geometry">
            <Array as="points">
              <mxPoint x="1392.62" y="165" />
              <mxPoint x="1392.62" y="285" />
            </Array>
          </mxGeometry>
        </mxCell>
        <mxCell id="ybSoX0F6BqA2yfXRWK5T-68" value="left join" style="edgeLabel;html=1;align=center;verticalAlign=middle;resizable=0;points=[];" vertex="1" connectable="0" parent="ybSoX0F6BqA2yfXRWK5T-65">
          <mxGeometry x="0.6564" y="-3" relative="1" as="geometry">
            <mxPoint y="-3" as="offset" />
          </mxGeometry>
        </mxCell>
        <mxCell id="ybSoX0F6BqA2yfXRWK5T-57" value="" style="shape=datastore;whiteSpace=wrap;html=1;" vertex="1" parent="1">
          <mxGeometry x="1186.62" y="135" width="66" height="60" as="geometry" />
        </mxCell>
        <mxCell id="ybSoX0F6BqA2yfXRWK5T-58" value="结果表" style="text;html=1;align=center;verticalAlign=middle;resizable=0;points=[];autosize=1;strokeColor=none;fillColor=none;" vertex="1" parent="1">
          <mxGeometry x="1189.62" y="155" width="60" height="30" as="geometry" />
        </mxCell>
        <mxCell id="ybSoX0F6BqA2yfXRWK5T-59" value="&lt;span style=&quot;forced-color-adjust: none; color: rgb(0, 0, 0); font-family: Helvetica; font-size: 12px; font-style: normal; font-variant-ligatures: normal; font-variant-caps: normal; font-weight: 400; letter-spacing: normal; orphans: 2; text-align: left; text-indent: 0px; text-transform: none; widows: 2; word-spacing: 0px; -webkit-text-stroke-width: 0px; white-space: normal; background-color: rgb(236, 236, 236); text-decoration-thickness: initial; text-decoration-style: initial; text-decoration-color: initial;&quot;&gt;md5_phone, date_day,&amp;nbsp;&lt;/span&gt;&lt;span style=&quot;color: rgb(0, 0, 0); font-family: Helvetica; font-size: 12px; font-style: normal; font-variant-ligatures: normal; font-variant-caps: normal; font-weight: 400; letter-spacing: normal; orphans: 2; text-align: left; text-indent: 0px; text-transform: none; widows: 2; word-spacing: 0px; -webkit-text-stroke-width: 0px; white-space: nowrap; background-color: rgb(236, 236, 236); text-decoration-thickness: initial; text-decoration-style: initial; text-decoration-color: initial; display: inline !important; float: none;&quot;&gt;user_guid, feat, pt&lt;/span&gt;" style="text;whiteSpace=wrap;html=1;" vertex="1" parent="1">
          <mxGeometry x="1097.62" y="205" width="250" height="40" as="geometry" />
        </mxCell>
        <mxCell id="ybSoX0F6BqA2yfXRWK5T-87" style="edgeStyle=orthogonalEdgeStyle;rounded=0;orthogonalLoop=1;jettySize=auto;html=1;entryX=0;entryY=0.5;entryDx=0;entryDy=0;" edge="1" parent="1" source="ybSoX0F6BqA2yfXRWK5T-63" target="ybSoX0F6BqA2yfXRWK5T-71">
          <mxGeometry relative="1" as="geometry">
            <Array as="points">
              <mxPoint x="1752.62" y="285" />
              <mxPoint x="1752.62" y="360" />
            </Array>
          </mxGeometry>
        </mxCell>
        <mxCell id="ybSoX0F6BqA2yfXRWK5T-63" value="合并结果表" style="shape=datastore;whiteSpace=wrap;html=1;" vertex="1" parent="1">
          <mxGeometry x="1542.62" y="255" width="66" height="60" as="geometry" />
        </mxCell>
        <mxCell id="ybSoX0F6BqA2yfXRWK5T-70" value="（按 md5_phone 链接）" style="text;html=1;align=center;verticalAlign=middle;resizable=0;points=[];autosize=1;strokeColor=none;fillColor=none;" vertex="1" parent="1">
          <mxGeometry x="1392.62" y="290" width="150" height="30" as="geometry" />
        </mxCell>
        <mxCell id="ybSoX0F6BqA2yfXRWK5T-71" value="csv 附件表" style="shape=datastore;whiteSpace=wrap;html=1;" vertex="1" parent="1">
          <mxGeometry x="1932.62" y="330" width="66" height="60" as="geometry" />
        </mxCell>
        <mxCell id="ybSoX0F6BqA2yfXRWK5T-76" style="edgeStyle=orthogonalEdgeStyle;rounded=0;orthogonalLoop=1;jettySize=auto;html=1;exitX=0.5;exitY=1;exitDx=0;exitDy=0;exitPerimeter=0;entryX=0.5;entryY=0;entryDx=0;entryDy=0;" edge="1" parent="1" source="ybSoX0F6BqA2yfXRWK5T-72" target="ybSoX0F6BqA2yfXRWK5T-71">
          <mxGeometry relative="1" as="geometry" />
        </mxCell>
        <mxCell id="ybSoX0F6BqA2yfXRWK5T-77" value="上传" style="edgeLabel;html=1;align=center;verticalAlign=middle;resizable=0;points=[];" vertex="1" connectable="0" parent="ybSoX0F6BqA2yfXRWK5T-76">
          <mxGeometry x="-0.1571" y="2" relative="1" as="geometry">
            <mxPoint as="offset" />
          </mxGeometry>
        </mxCell>
        <mxCell id="ybSoX0F6BqA2yfXRWK5T-72" value="" style="verticalLabelPosition=bottom;html=1;verticalAlign=top;align=center;strokeColor=none;fillColor=#00BEF2;shape=mxgraph.azure.cloud_services_configuration_file;pointerEvents=1;" vertex="1" parent="1">
          <mxGeometry x="1937.25" y="125" width="56.75" height="60" as="geometry" />
        </mxCell>
        <mxCell id="ybSoX0F6BqA2yfXRWK5T-75" value="csv附件" style="text;html=1;align=center;verticalAlign=middle;resizable=0;points=[];autosize=1;strokeColor=none;fillColor=none;" vertex="1" parent="1">
          <mxGeometry x="1935.25" y="83" width="70" height="30" as="geometry" />
        </mxCell>
        <mxCell id="ybSoX0F6BqA2yfXRWK5T-79" value="user_guid, md5_phone, date_day,&amp;nbsp;&lt;div&gt;feat1,feat2,pt&lt;/div&gt;" style="text;html=1;align=center;verticalAlign=middle;whiteSpace=wrap;rounded=0;" vertex="1" parent="1">
          <mxGeometry x="1465.62" y="210" width="220" height="30" as="geometry" />
        </mxCell>
        <mxCell id="ybSoX0F6BqA2yfXRWK5T-86" style="edgeStyle=orthogonalEdgeStyle;rounded=0;orthogonalLoop=1;jettySize=auto;html=1;entryX=0;entryY=0.5;entryDx=0;entryDy=0;" edge="1" parent="1" source="ybSoX0F6BqA2yfXRWK5T-82" target="ybSoX0F6BqA2yfXRWK5T-71">
          <mxGeometry relative="1" as="geometry">
            <Array as="points">
              <mxPoint x="1752.62" y="460" />
              <mxPoint x="1752.62" y="360" />
            </Array>
          </mxGeometry>
        </mxCell>
        <mxCell id="ybSoX0F6BqA2yfXRWK5T-89" value="left join" style="edgeLabel;html=1;align=center;verticalAlign=middle;resizable=0;points=[];" vertex="1" connectable="0" parent="ybSoX0F6BqA2yfXRWK5T-86">
          <mxGeometry x="0.5708" y="-2" relative="1" as="geometry">
            <mxPoint as="offset" />
          </mxGeometry>
        </mxCell>
        <mxCell id="ybSoX0F6BqA2yfXRWK5T-82" value="子模型结果" style="shape=datastore;whiteSpace=wrap;html=1;" vertex="1" parent="1">
          <mxGeometry x="1542.62" y="430" width="66" height="60" as="geometry" />
        </mxCell>
        <mxCell id="ybSoX0F6BqA2yfXRWK5T-83" value="user_guid, md5_phone, date_day, model，pt" style="text;html=1;align=center;verticalAlign=middle;whiteSpace=wrap;rounded=0;" vertex="1" parent="1">
          <mxGeometry x="1422.62" y="390" width="277" height="30" as="geometry" />
        </mxCell>
        <mxCell id="ybSoX0F6BqA2yfXRWK5T-90" value="（按 md5_phone 链接）" style="text;html=1;align=center;verticalAlign=middle;resizable=0;points=[];autosize=1;strokeColor=none;fillColor=none;" vertex="1" parent="1">
          <mxGeometry x="1772.62" y="370" width="150" height="30" as="geometry" />
        </mxCell>
        <mxCell id="ybSoX0F6BqA2yfXRWK5T-91" value="模型结果表" style="shape=datastore;whiteSpace=wrap;html=1;" vertex="1" parent="1">
          <mxGeometry x="2236.37" y="560" width="66" height="60" as="geometry" />
        </mxCell>
        <mxCell id="ybSoX0F6BqA2yfXRWK5T-94" value="" style="outlineConnect=0;dashed=0;verticalLabelPosition=bottom;verticalAlign=top;align=center;html=1;shape=mxgraph.aws3.android;fillColor=#FFD44F;gradientColor=none;" vertex="1" parent="1">
          <mxGeometry x="2232.62" y="318" width="73.5" height="84" as="geometry" />
        </mxCell>
        <mxCell id="ybSoX0F6BqA2yfXRWK5T-95" value="" style="verticalLabelPosition=bottom;html=1;verticalAlign=top;align=center;strokeColor=none;fillColor=#00BEF2;shape=mxgraph.azure.cloud_services_configuration_file;pointerEvents=1;" vertex="1" parent="1">
          <mxGeometry x="2072.62" y="330" width="56.75" height="60" as="geometry" />
        </mxCell>
        <mxCell id="ybSoX0F6BqA2yfXRWK5T-96" style="edgeStyle=orthogonalEdgeStyle;rounded=0;orthogonalLoop=1;jettySize=auto;html=1;entryX=0;entryY=0.5;entryDx=0;entryDy=0;entryPerimeter=0;" edge="1" parent="1" source="ybSoX0F6BqA2yfXRWK5T-71" target="ybSoX0F6BqA2yfXRWK5T-95">
          <mxGeometry relative="1" as="geometry" />
        </mxCell>
        <mxCell id="ybSoX0F6BqA2yfXRWK5T-97" value="模型入参文件" style="text;html=1;align=center;verticalAlign=middle;resizable=0;points=[];autosize=1;strokeColor=none;fillColor=none;" vertex="1" parent="1">
          <mxGeometry x="2051" y="290" width="100" height="30" as="geometry" />
        </mxCell>
        <mxCell id="ybSoX0F6BqA2yfXRWK5T-98" style="edgeStyle=orthogonalEdgeStyle;rounded=0;orthogonalLoop=1;jettySize=auto;html=1;entryX=0;entryY=0.5;entryDx=0;entryDy=0;entryPerimeter=0;" edge="1" parent="1" source="ybSoX0F6BqA2yfXRWK5T-95" target="ybSoX0F6BqA2yfXRWK5T-94">
          <mxGeometry relative="1" as="geometry" />
        </mxCell>
        <mxCell id="ybSoX0F6BqA2yfXRWK5T-100" value="打分" style="edgeLabel;html=1;align=center;verticalAlign=middle;resizable=0;points=[];" vertex="1" connectable="0" parent="ybSoX0F6BqA2yfXRWK5T-98">
          <mxGeometry x="-0.1816" relative="1" as="geometry">
            <mxPoint as="offset" />
          </mxGeometry>
        </mxCell>
        <mxCell id="ybSoX0F6BqA2yfXRWK5T-103" style="edgeStyle=orthogonalEdgeStyle;rounded=0;orthogonalLoop=1;jettySize=auto;html=1;exitX=0.5;exitY=1;exitDx=0;exitDy=0;exitPerimeter=0;entryX=0.5;entryY=0;entryDx=0;entryDy=0;" edge="1" parent="1" source="ybSoX0F6BqA2yfXRWK5T-101" target="ybSoX0F6BqA2yfXRWK5T-91">
          <mxGeometry relative="1" as="geometry" />
        </mxCell>
        <mxCell id="ybSoX0F6BqA2yfXRWK5T-101" value="" style="verticalLabelPosition=bottom;html=1;verticalAlign=top;align=center;strokeColor=none;fillColor=#00BEF2;shape=mxgraph.azure.cloud_services_configuration_file;pointerEvents=1;" vertex="1" parent="1">
          <mxGeometry x="2241" y="450" width="56.75" height="60" as="geometry" />
        </mxCell>
        <mxCell id="ybSoX0F6BqA2yfXRWK5T-102" style="edgeStyle=orthogonalEdgeStyle;rounded=0;orthogonalLoop=1;jettySize=auto;html=1;exitX=0.5;exitY=1;exitDx=0;exitDy=0;exitPerimeter=0;entryX=0.5;entryY=0;entryDx=0;entryDy=0;entryPerimeter=0;" edge="1" parent="1" source="ybSoX0F6BqA2yfXRWK5T-94" target="ybSoX0F6BqA2yfXRWK5T-101">
          <mxGeometry relative="1" as="geometry" />
        </mxCell>
      </root>
    </mxGraphModel>
  </diagram>
</mxfile>
